<svg width="16" height="16" viewBox="0 0 16 16" fill="none" xmlns="http://www.w3.org/2000/svg">
<path fill-rule="evenodd" clip-rule="evenodd" d="M8.00016 10.3333C7.44883 10.3333 7.00016 9.88467 7.00016 9.33333C7.00016 8.782 7.44883 8.33333 8.00016 8.33333C8.5515 8.33333 9.00016 8.782 9.00016 9.33333C9.00016 9.88467 8.5515 10.3333 8.00016 10.3333ZM8.00016 7C6.7135 7 5.66683 8.04667 5.66683 9.33333C5.66683 10.62 6.7135 11.6667 8.00016 11.6667C9.28683 11.6667 10.3335 10.62 10.3335 9.33333C10.3335 8.04667 9.28683 7 8.00016 7ZM13.3335 12C13.3335 12.3673 13.0348 12.6667 12.6668 12.6667H3.3335C2.9655 12.6667 2.66683 12.3673 2.66683 12V6.66667C2.66683 6.29933 2.9655 6 3.3335 6H12.6668C13.0348 6 13.3335 6.29933 13.3335 6.66667V12ZM6.66683 3.66667C6.66683 3.48267 6.81683 3.33333 7.00016 3.33333H9.00016C9.1835 3.33333 9.3335 3.48267 9.3335 3.66667V4.66667H6.66683V3.66667ZM12.6668 4.66667H10.6668V3.66667C10.6668 2.748 9.9195 2 9.00016 2H7.00016C6.08083 2 5.3335 2.748 5.3335 3.66667V4.66667H3.3335C2.23083 4.66667 1.3335 5.564 1.3335 6.66667V12C1.3335 13.1027 2.23083 14 3.3335 14H12.6668C13.7695 14 14.6668 13.1027 14.6668 12V6.66667C14.6668 5.564 13.7695 4.66667 12.6668 4.66667Z" fill="white"/>
</svg>
