<svg width="32" height="32" viewBox="0 0 32 32" fill="none" xmlns="http://www.w3.org/2000/svg">
<rect width="32" height="32" rx="16" fill="#ECECEC"/>
<path fill-rule="evenodd" clip-rule="evenodd" d="M22.0244 14.3549L18.6553 10.9815L21.0905 8.54184L24.4584 11.914L22.0244 14.3549ZM26.2563 10.1729L26.2551 10.1716L22.8322 6.74434C21.9059 5.81931 20.3145 5.77549 19.4369 6.65797L8.19075 17.9187C7.78321 18.3255 7.53069 18.8662 7.47818 19.4383L7.00438 24.6581C6.97188 25.0273 7.10314 25.3928 7.36567 25.6557C7.60194 25.8923 7.92072 26.0225 8.24951 26.0225C8.28826 26.0225 8.32577 26.0212 8.36327 26.0175L13.5763 25.543C14.1489 25.4905 14.6877 25.2389 15.0939 24.8321L26.3413 13.5701C27.2514 12.6563 27.2127 11.1317 26.2563 10.1729Z" fill="url(#paint0_linear_123_2333)"/>
<defs>
<linearGradient id="paint0_linear_123_2333" x1="6.99951" y1="15.9225" x2="29.5495" y2="15.9225" gradientUnits="userSpaceOnUse">
<stop stop-color="#064198"/>
<stop offset="0.67" stop-color="#C20167"/>
</linearGradient>
</defs>
</svg>
