<svg width="14" height="13" viewBox="0 0 14 13" fill="none" xmlns="http://www.w3.org/2000/svg">
<path fill-rule="evenodd" clip-rule="evenodd" d="M6.99962 9.69967C7.10562 9.69967 7.21162 9.72501 7.30828 9.77501L9.82095 11.0883L9.34295 8.31701C9.30495 8.09967 9.37761 7.87834 9.53628 7.72434L11.5603 5.76701L8.75828 5.35901C8.54162 5.32767 8.35428 5.19234 8.25695 4.99634L6.99962 2.46701L5.74228 4.99634C5.64495 5.19234 5.45762 5.32767 5.24095 5.35901L2.43895 5.76701L4.46295 7.72434C4.62162 7.87834 4.69428 8.09967 4.65628 8.31701L4.17828 11.0883L6.69095 9.77501C6.78762 9.72501 6.89362 9.69967 6.99962 9.69967ZM10.7076 12.9697C10.6016 12.9697 10.4956 12.945 10.399 12.8943L6.99962 11.1183L3.60028 12.8943C3.37495 13.0117 3.10295 12.991 2.89962 12.8417C2.69428 12.6923 2.59228 12.4397 2.63495 12.1897L3.28295 8.43767L0.536283 5.78101C0.35295 5.60434 0.287617 5.33901 0.365617 5.09701C0.44295 4.85501 0.652283 4.67901 0.903617 4.64234L4.70428 4.09034L6.40228 0.673008C6.62762 0.219674 7.37162 0.219674 7.59695 0.673008L9.29495 4.09034L13.0956 4.64234C13.347 4.67901 13.5563 4.85501 13.6336 5.09701C13.7116 5.33901 13.6463 5.60434 13.463 5.78101L10.7163 8.43767L11.3643 12.1897C11.4069 12.4397 11.305 12.6923 11.0996 12.8417C10.9843 12.927 10.8463 12.9697 10.7076 12.9697Z" fill="#D69304"/>
</svg>
