<svg width="85" height="72" viewBox="0 0 85 72" fill="none" xmlns="http://www.w3.org/2000/svg">
<path fill-rule="evenodd" clip-rule="evenodd" d="M42.4998 71.5003C43.6081 71.5003 44.6665 71.0628 45.4498 70.2753L77.8123 37.8587C86.2956 29.3587 86.2956 15.5295 77.8123 7.02949C73.7165 2.92949 68.2456 0.666992 62.4165 0.666992C56.5873 0.666992 51.1165 2.92949 47.0206 7.02949L42.4998 11.5587L37.9831 7.03366C33.8831 2.92949 28.4123 0.666992 22.5831 0.666992C16.754 0.666992 11.2831 2.92949 7.18731 7.02949C-1.29602 15.5295 -1.29603 29.3587 7.18314 37.8587L39.5498 70.2795C40.3331 71.0628 41.3915 71.5003 42.4998 71.5003Z" fill="url(#paint0_linear_610_1299)" fill-opacity="0.5"/>
<defs>
<linearGradient id="paint0_linear_610_1299" x1="84.1748" y1="35.7295" x2="-9.80291" y2="35.7295" gradientUnits="userSpaceOnUse">
<stop stop-color="#C20167"/>
<stop offset="1" stop-color="#064198"/>
</linearGradient>
</defs>
</svg>
