<svg width="14" height="13" viewBox="0 0 14 13" fill="none" xmlns="http://www.w3.org/2000/svg">
<path fill-rule="evenodd" clip-rule="evenodd" d="M10.7077 13.0009C10.6024 13.0009 10.4964 12.9763 10.3991 12.9256L6.99975 11.1496L3.60108 12.9256C3.37575 13.0423 3.10375 13.0223 2.89975 12.8729C2.69442 12.7236 2.59242 12.4709 2.63575 12.2209L3.28308 8.46892L0.536415 5.81226C0.353749 5.63559 0.287749 5.37026 0.365749 5.12759C0.443749 4.88626 0.652415 4.70959 0.904415 4.67359L4.70442 4.12159L6.40308 0.704258C6.62842 0.250924 7.37175 0.250924 7.59708 0.704258L9.29575 4.12159L13.0957 4.67359C13.3477 4.70959 13.5564 4.88626 13.6344 5.12759C13.7124 5.37026 13.6464 5.63559 13.4637 5.81226L10.7171 8.46892L11.3644 12.2209C11.4077 12.4709 11.3051 12.7236 11.1004 12.8729C10.9844 12.9583 10.8464 13.0009 10.7077 13.0009Z" fill="#D69304"/>
</svg>
