<svg width="32" height="32" viewBox="0 0 32 32" fill="none" xmlns="http://www.w3.org/2000/svg">
<rect width="32" height="32" rx="16" fill="#ECECEC"/>
<path fill-rule="evenodd" clip-rule="evenodd" d="M12 9C12 9.55 11.55 10 11 10H10V22H11C11.55 22 12 22.45 12 23C12 23.55 11.55 24 11 24H9C8.45 24 8 23.55 8 23V9C8 8.45 8.45 8 9 8H11C11.55 8 12 8.45 12 9ZM22.0039 11.4248L24.8179 15.4248C25.0679 15.7788 25.0599 16.2538 24.7999 16.5998L21.7999 20.5998C21.6039 20.8618 21.3029 20.9998 20.9989 20.9998C20.7909 20.9998 20.5799 20.9348 20.3999 20.7998C19.9579 20.4688 19.8689 19.8418 20.1999 19.4008L22.0009 16.9998H21.9999H13.9999C13.4479 16.9998 12.9999 16.5528 12.9999 15.9998C12.9999 15.4468 13.4479 14.9998 13.9999 14.9998H21.9999C22.0164 14.9998 22.0317 15.0044 22.0472 15.0089C22.0598 15.0127 22.0724 15.0165 22.0859 15.0178L20.3679 12.5748C20.0499 12.1238 20.1589 11.4998 20.6109 11.1818C21.0619 10.8628 21.6859 10.9728 22.0039 11.4248Z" fill="url(#paint0_linear_123_2614)"/>
<defs>
<linearGradient id="paint0_linear_123_2614" x1="8" y1="15.92" x2="27.1678" y2="15.92" gradientUnits="userSpaceOnUse">
<stop stop-color="#064198"/>
<stop offset="0.67" stop-color="#C20167"/>
</linearGradient>
</defs>
</svg>
