<svg width="32" height="32" viewBox="0 0 32 32" fill="none" xmlns="http://www.w3.org/2000/svg">
<rect width="32" height="32" rx="16" fill="#ECECEC"/>
<path fill-rule="evenodd" clip-rule="evenodd" d="M15 16C14.448 16 14 16.448 14 17C14 17.552 14.448 18 15 18C15.552 18 16 17.552 16 17C16 16.448 15.552 16 15 16ZM15 20C13.346 20 12 18.654 12 17C12 15.346 13.346 14 15 14C16.654 14 18 15.346 18 17C18 18.654 16.654 20 15 20ZM20 10H13V8C13 6.897 13.897 6 15 6C16.103 6 17 6.897 17 8C17 8.553 17.447 9 18 9C18.553 9 19 8.553 19 8C19 5.794 17.206 4 15 4C12.794 4 11 5.794 11 8V10H10C8.346 10 7 11.346 7 13V21C7 22.654 8.346 24 10 24H20C21.654 24 23 22.654 23 21V13C23 11.346 21.654 10 20 10Z" fill="url(#paint0_linear_123_2375)"/>
<defs>
<linearGradient id="paint0_linear_123_2375" x1="7" y1="13.9" x2="25.04" y2="13.9" gradientUnits="userSpaceOnUse">
<stop stop-color="#064198"/>
<stop offset="0.67" stop-color="#C20167"/>
</linearGradient>
</defs>
</svg>
