<svg width="32" height="32" viewBox="0 0 32 32" fill="none" xmlns="http://www.w3.org/2000/svg">
<rect width="32" height="32" rx="16" fill="#ECECEC"/>
<path fill-rule="evenodd" clip-rule="evenodd" d="M16 14.5C15.173 14.5 14.5 15.173 14.5 16C14.5 16.827 15.173 17.5 16 17.5C16.827 17.5 17.5 16.827 17.5 16C17.5 15.173 16.827 14.5 16 14.5ZM16 19.5C14.07 19.5 12.5 17.93 12.5 16C12.5 14.07 14.07 12.5 16 12.5C17.93 12.5 19.5 14.07 19.5 16C19.5 17.93 17.93 19.5 16 19.5ZM24.317 13.375H23.233C23.086 13.375 22.986 13.258 22.925 13.111C22.879 13 22.867 12.846 22.972 12.741L23.742 11.975C24.06 11.658 24.236 11.235 24.236 10.787C24.236 10.337 24.062 9.915 23.744 9.598L22.403 8.257C21.749 7.601 20.682 7.603 20.026 8.257L19.256 9.028C19.152 9.133 18.998 9.12 18.853 9.06C18.743 9.015 18.625 8.914 18.625 8.767V7.676C18.625 6.752 17.874 6 16.949 6H15.057C14.129 6 13.375 6.755 13.375 7.683V8.767C13.375 8.914 13.258 9.014 13.111 9.075C13 9.122 12.845 9.134 12.741 9.028L11.976 8.259C11.658 7.94 11.236 7.765 10.787 7.765H10.785C10.336 7.765 9.914 7.939 9.597 8.257L8.257 9.597C7.602 10.251 7.602 11.317 8.257 11.974L9.028 12.744C9.132 12.848 9.12 13.003 9.06 13.147C9.015 13.257 8.914 13.375 8.767 13.375H7.676C6.752 13.375 6 14.126 6 15.051V16.943C6 17.871 6.755 18.625 7.683 18.625H8.767C8.914 18.625 9.014 18.742 9.075 18.889C9.121 19 9.133 19.154 9.028 19.259L8.259 20.024C7.94 20.342 7.765 20.764 7.765 21.213C7.764 21.663 7.939 22.085 8.257 22.403L9.597 23.743C10.251 24.399 11.318 24.397 11.974 23.743L12.744 22.972C12.849 22.869 13.003 22.881 13.147 22.94C13.257 22.985 13.375 23.086 13.375 23.233V24.324C13.375 25.248 14.126 26 15.051 26H16.943C17.871 26 18.625 25.245 18.625 24.317V23.233C18.625 23.086 18.742 22.986 18.889 22.925C18.999 22.879 19.154 22.867 19.259 22.972L20.024 23.741C20.342 24.06 20.764 24.235 21.213 24.235H21.215C21.664 24.235 22.086 24.061 22.403 23.743L23.743 22.403C24.398 21.749 24.398 20.683 23.743 20.026L22.972 19.256C22.868 19.152 22.88 18.997 22.927 18.886C22.927 18.884 22.94 18.854 22.94 18.853C22.985 18.743 23.086 18.625 23.233 18.625H24.324C25.248 18.625 26 17.874 26 16.949V15.057C26 14.129 25.245 13.375 24.317 13.375Z" fill="url(#paint0_linear_123_2392)"/>
<defs>
<linearGradient id="paint0_linear_123_2392" x1="6" y1="15.9" x2="28.55" y2="15.9" gradientUnits="userSpaceOnUse">
<stop stop-color="#064198"/>
<stop offset="0.67" stop-color="#C20167"/>
</linearGradient>
</defs>
</svg>
