<svg width="68" height="57" viewBox="0 0 68 57" fill="none" xmlns="http://www.w3.org/2000/svg">
<path fill-rule="evenodd" clip-rule="evenodd" d="M66.82 26.4244C66.891 26.6511 66.9622 26.8781 67.0093 27.114C67.216 28.1573 67.3327 29.2307 67.3327 30.334C67.3327 31.3607 67.2127 32.3707 67.026 33.3673C66.9847 33.5945 66.9292 33.8122 66.8736 34.0303C66.8484 34.1289 66.8232 34.2276 66.7993 34.3273C66.6327 34.9907 66.436 35.6407 66.1927 36.2773C66.066 36.6073 65.936 36.9307 65.7894 37.2507C65.4994 37.884 65.1627 38.4907 64.7927 39.0873C64.7352 39.1798 64.6805 39.2737 64.6258 39.3676C64.5347 39.5241 64.4435 39.6807 64.3393 39.8307C64.3089 39.8739 64.2831 39.9187 64.2574 39.9632C64.2297 40.0113 64.2022 40.059 64.1693 40.104C64.1436 40.1408 64.1077 40.1643 64.0723 40.1876C64.0436 40.2065 64.0151 40.2252 63.9927 40.2507C60.9527 44.324 56.1393 47.0007 50.666 47.0007H40.666V42.7773C41.6693 43.3573 42.8093 43.6673 43.9993 43.6673C45.7793 43.6673 47.4527 42.974 48.7127 41.714C51.3127 39.1173 51.3127 34.884 48.7127 32.2873L38.7127 22.2873C37.4593 21.0307 35.786 20.3373 34.006 20.3373C32.276 20.3373 30.6327 20.994 29.3793 22.1907L19.3693 31.8573C16.726 34.4107 16.6527 38.6407 19.206 41.284C20.4593 42.5807 22.206 43.324 24.006 43.324C25.1893 43.324 26.3293 43.014 27.3327 42.434V47.0007H17.3327C11.8593 47.0007 7.04602 44.324 4.00935 40.2507C3.98599 40.2258 3.95751 40.2074 3.92896 40.1889C3.89233 40.1652 3.85557 40.1414 3.82935 40.104C3.7941 40.0557 3.76504 40.0044 3.73586 39.9528C3.71261 39.9118 3.68928 39.8706 3.66268 39.8307C3.55629 39.6774 3.46212 39.5174 3.36804 39.3576C3.31474 39.267 3.26147 39.1765 3.20602 39.0873C2.83935 38.4907 2.49935 37.884 2.20935 37.2507C2.0674 36.9409 1.94419 36.6281 1.81855 36.3091L1.80602 36.2773C1.56602 35.6407 1.36602 34.9907 1.20268 34.3273C1.18159 34.243 1.15981 34.1593 1.13806 34.0758C1.07732 33.8425 1.01687 33.6103 0.972682 33.3673C0.789349 32.3707 0.666016 31.3607 0.666016 30.334C0.666016 29.2307 0.786016 28.1573 0.989349 27.114C1.03793 26.8711 1.11194 26.6376 1.18593 26.4041C1.22872 26.2691 1.27149 26.1341 1.30935 25.9973C1.32328 25.9461 1.33717 25.8949 1.35106 25.8438C1.50997 25.258 1.66891 24.6722 1.89268 24.1173C2.01342 23.8155 2.16166 23.533 2.31035 23.2497C2.37512 23.1263 2.43997 23.0027 2.50268 22.8773C2.52401 22.8349 2.54527 22.7926 2.56651 22.7503C2.80076 22.2838 3.0315 21.8244 3.31268 21.3873C3.52525 21.051 3.76606 20.7407 4.00706 20.4302C4.0646 20.356 4.12216 20.2819 4.17935 20.2073L4.19119 20.1921C4.51384 19.7773 4.83374 19.3659 5.19268 18.9807C5.51428 18.6338 5.85973 18.3228 6.2093 18.0081C6.2293 17.99 6.24932 17.972 6.26935 17.954C6.66268 17.6007 7.06268 17.2607 7.48935 16.9473C7.88602 16.654 8.29268 16.3873 8.71601 16.134C9.18268 15.8473 9.65935 15.5907 10.1527 15.354C10.586 15.144 11.0193 14.954 11.4727 14.784C12.0127 14.5773 12.5693 14.414 13.136 14.2673C13.586 14.1473 14.026 14.0307 14.4927 13.954C14.5808 13.9378 14.6663 13.9146 14.7517 13.8913C14.8603 13.8618 14.9689 13.8322 15.0827 13.8173C17.8193 5.87065 25.3993 0.333984 33.9993 0.333984C42.6027 0.333984 50.1827 5.87065 52.916 13.8173C53.03 13.8323 53.1399 13.8619 53.2496 13.8915C53.3356 13.9147 53.4215 13.9379 53.5093 13.954C53.9727 14.0307 54.416 14.1473 54.8627 14.2673C55.4294 14.414 55.986 14.5773 56.526 14.784C56.9793 14.954 57.416 15.144 57.846 15.354C58.3393 15.5907 58.816 15.8473 59.2827 16.134C59.706 16.3873 60.116 16.654 60.5127 16.9473C60.936 17.2607 61.336 17.6007 61.7293 17.954C62.1027 18.2873 62.466 18.614 62.8093 18.9807C63.1727 19.3707 63.496 19.7873 63.8193 20.2073C63.8616 20.2618 63.904 20.3162 63.9463 20.3704C64.2042 20.701 64.4603 21.0294 64.6893 21.3873C64.9663 21.8226 65.1961 22.2801 65.4293 22.7446C65.4515 22.7888 65.4737 22.833 65.496 22.8773C65.5587 23.0027 65.6236 23.1263 65.6883 23.2497C65.837 23.533 65.9853 23.8154 66.106 24.1173C66.3335 24.6738 66.493 25.2615 66.6524 25.849C66.6658 25.8984 66.6792 25.9479 66.6927 25.9973C66.7312 26.141 66.7756 26.2826 66.82 26.4244ZM31.6833 24.6C32.9967 23.3466 35.0734 23.3566 36.3567 24.6433L46.3567 34.6433C47.66 35.9467 47.66 38.0533 46.3567 39.3567C45.7067 40.0066 44.8534 40.3333 44 40.3333C43.1467 40.3333 42.2934 40.0066 41.6434 39.3567L37.3334 35.0466V53.6667C37.3334 55.51 35.84 57 34 57C32.16 57 30.6667 55.51 30.6667 53.6667V34.8533L26.3167 39.0533C24.9934 40.3367 22.8834 40.2933 21.6034 38.97C20.3234 37.6433 20.36 35.5367 21.6834 34.2566L31.6833 24.6Z" fill="url(#paint0_linear_98_3686)" fill-opacity="0.5"/>
<defs>
<linearGradient id="paint0_linear_98_3686" x1="0.666016" y1="28.3837" x2="75.8327" y2="28.3837" gradientUnits="userSpaceOnUse">
<stop stop-color="#C20167"/>
<stop offset="1" stop-color="#064198"/>
</linearGradient>
</defs>
</svg>
